<?xml version="1.0" encoding="utf-8"?>
<!-- Generator: Adobe Illustrator 22.1.0, SVG Export Plug-In . SVG Version: 6.00 Build 0)  -->
<svg version="1.1" id="Layer_1" xmlns="http://www.w3.org/2000/svg" xmlns:xlink="http://www.w3.org/1999/xlink" x="0px" y="0px"
	 viewBox="0 0 841.9 841.9" style="enable-background:new 0 0 841.9 841.9;" xml:space="preserve">
<style type="text/css">
	.st0{fill:#FFFFFF;}
</style>
<title>facebook</title>
<path class="st0" d="M679.8,66.6H162.1c-52.7,0-95.5,42.8-95.5,95.5v517.7c0,52.7,42.8,95.5,95.5,95.5h255.3l0.4-253.2h-65.8
	c-8.6,0-15.5-6.9-15.5-15.5l-0.3-81.6c0-8.6,6.9-15.6,15.5-15.6h65.7v-78.9c0-91.5,55.9-141.4,137.6-141.4h67
	c8.6,0,15.5,6.9,15.5,15.5v68.8c0,8.6-6.9,15.5-15.5,15.5l-41.1,0c-44.4,0-53,21.1-53,52.1v68.3h97.6c9.3,0,16.5,8.1,15.4,17.4
	l-9.7,81.6c-0.9,7.8-7.5,13.7-15.4,13.7h-87.5l-0.4,253.2h151.9c52.7,0,95.5-42.8,95.5-95.5V162.1
	C775.3,109.4,732.5,66.6,679.8,66.6z"/>
</svg>
