<?xml version="1.0" encoding="utf-8"?>
<!-- Generator: Adobe Illustrator 22.1.0, SVG Export Plug-In . SVG Version: 6.00 Build 0)  -->
<svg version="1.1" id="Layer_1" xmlns="http://www.w3.org/2000/svg" xmlns:xlink="http://www.w3.org/1999/xlink" x="0px" y="0px"
	 viewBox="0 0 841.9 207.7" style="enable-background:new 0 0 841.9 207.7;" xml:space="preserve">
<style type="text/css">
	.st0{fill:#FFFFFF;}
	.st1{fill:#020304;}
</style>
<g>
	<path class="st0" d="M457.8,155c-9,0-17.7,0-26.9,0c0.4-5.2,0.6-10.2,1.3-15.1c3.9-25.7,14.3-48.3,32.7-66.9
		c9.8-9.9,21.3-17.2,35.3-19.7c1.8-0.3,3.6-0.5,5.7-0.7c0,9,0,17.7,0,27.3c13-14.7,27.5-25.6,47.4-27.3c0,34.2,0,68.2,0,102.4
		c-8.6,0-17.2,0-26.1,0c0-20.7,0-41.3,0-61.9c-0.3,0-0.5-0.1-0.8-0.1c-14.9,17.9-20,39.2-21.1,62c-8.5,0-16.9,0-25.5,0
		c0-20.7,0-41.2,0-61.8c-0.2-0.1-0.5-0.2-0.7-0.3c-7.6,8.3-12.3,18.3-15.8,28.9C459.8,132.5,458.3,143.6,457.8,155z M482.4,152.6
		c6.9,0,13.7,0,20.7,0c0.9-20.4,6-39.3,16.9-56.6c-5.2,4.7-10.3,9.3-14.6,14.6c-6.3,7.8-10.7,16.7-14.7,25.9
		c-1.7,3.9-4.1,7.6-6.8,10.8C482.5,149.1,481.9,150.5,482.4,152.6z M530,116.2c0.2,0,0.4,0,0.5,0c0.3-0.7,0.6-1.5,1-2.2
		c4.6-7.9,10.5-14.8,16.9-21.3c1.1-1.1,2.6-2.4,2.7-3.6c0.3-5.1,0.1-10.2,0.1-15.6c-0.9,0.5-1.4,0.6-1.8,1c-6,4.3-12.1,8.6-18.1,13
		c-0.9,0.7-1.6,2.4-1.6,3.6c-0.1,7.4-0.1,14.9-0.1,22.3C529.6,114.3,529.9,115.3,530,116.2z M503.6,55.5
		c-12.6-0.1-39.3,16.3-42.4,25.9c1.7-1,3.4-1.9,5-3c6.3-4.1,13.2-6.7,20.4-8.6c4.7-1.3,9.4-2.6,14.1-4.1c1.1-0.4,2.7-1.4,2.8-2.3
		C503.9,60.7,503.6,58.1,503.6,55.5z M551.2,136.3c-0.1,0-0.3-0.1-0.4-0.1c-2.4,5.4-4.8,10.8-7.3,16.4c2.9,0,5.2,0,7.7,0
		C551.2,147.1,551.2,141.7,551.2,136.3z"/>
	<path class="st0" d="M363.3,83.9c0-10.1,0-20,0-30.1c7.6,0,15.1,0,22.8,0c0,33.7,0,67.3,0,101.1c-8.8,0-17.7,0-26.9,0
		c0.5-24.3-6.6-45.7-24.3-63.8c0,21.6,0,42.7,0,63.9c-8.7,0-16.9,0-25.3,0c0-33.7,0-67.4,0-101.3c1.9,0,3.7,0,5.5,0
		c4.5,0,9,0.3,13.5-0.1c4.5-0.4,7.9,1.1,11.2,3.9c8.4,7,15.6,15,21.5,24.2c0.4,0.7,0.9,1.4,1.4,2.1
		C362.7,83.8,362.8,83.8,363.3,83.9z M344.4,98c5-3.8,10.1-7.6,15.1-11.6c0.5-0.4,0.6-2,0.2-2.5c-5-6.4-10-12.6-15.2-18.9
		c-0.3-0.3-2-0.2-2.2,0.2c-4.5,6.5-9,13-13.2,19.6c-4.4,7-8.5,14.3-12.7,21.4c-3.2,5.4-5.1,11-4.7,17.6c0.5,8.6,0.1,17.3,0.1,25.9
		c0,1,0.1,1.9,0.1,2.9c2.4,0,4.5,0,6.7,0c0.1-0.7,0.2-1.4,0.3-2c0.8-6.3,1.3-12.7,2.4-19c1.3-6.9,4.8-12.9,9-18.5
		c1.1-1.5,1.8-3.6,2-5.4c0.3-4.3,0.1-8.6,0.1-13c0-3.1,0-6.1,0-9.2c0.2-0.1,0.5-0.2,0.7-0.3C336.8,89.6,340.6,93.8,344.4,98z
		 M365.8,56.2c0,8.1,0,16,0,24.4c1.4-1.3,2.5-2.1,3.4-3.1c4.4-4.9,8.7-10,13.2-14.9c1.8-1.9,1.7-4.1,1.4-6.5
		C377.6,56.2,371.7,56.2,365.8,56.2z M383.6,114.3c-7.1,12.7-7.1,32.3,0,38.6C383.6,139.9,383.6,127.1,383.6,114.3z"/>
	<path class="st0" d="M223.2,52.7c10.6,0.6,20.2,4,29.1,9.4c18.4,11.2,30.7,27.6,39.6,46.9c6,13.1,9.7,26.9,10.3,41.4c0,1,0,2,0,3
		c0,0.4-0.1,0.9-0.1,1.5c-8.3,0-16.6,0-24.9,0c-0.6-4.6-1-9.2-1.7-13.8c-0.1-0.8-1.3-2.2-2-2.2c-8.1-0.2-16.2-0.1-24.6-0.1
		c0,5.5,0,10.7,0,16.1c-8.7,0-17.1,0-25.6,0C223.2,120.9,223.2,86.9,223.2,52.7z M225.6,112.5c0.4,0,0.6,0,0.7-0.1
		c5.5-7.1,11.9-13.3,18.7-19.2c0.7-0.6,1.1-1.8,1.2-2.8c0.2-1.7,0.1-3.5,0.1-5.8c1.5,1.2,2.4,2.1,3.5,2.6c0.8,0.4,2.1,0.5,2.7,0.1
		c4.8-3.5,9.5-7.1,14.4-10.8c-5.3-5.5-11.3-10-17.9-13.6c-0.6-0.3-1.8-0.1-2.4,0.3c-2.5,1.8-4.9,3.6-7.2,5.6
		c-7.3,6.3-12.3,14.2-13.6,23.8c-0.9,6.2-0.2,12.7-0.2,19C225.3,111.9,225.6,112.2,225.6,112.5z M269.3,120.2
		c-4.9-11.4-11-21.7-20.5-30.5c0,10.5,0,20.4,0,30.5C255.6,120.2,262.3,120.2,269.3,120.2z M293.6,152.6c2.4,0,4.2,0,6.4,0
		c-0.3-3.7-0.6-7.2-0.9-10.7c-0.2,0-0.4,0-0.7,0.1C296.9,145.4,295.3,148.8,293.6,152.6z M227.9,55.6c-1-0.1-1.8-0.2-2.4-0.3
		c0,1.7,0,2.9,0,4.1c0.1,0,0.3,0.1,0.4,0.1C226.5,58.4,227.1,57.2,227.9,55.6z"/>
	<path class="st0" d="M68.4,155c-0.4-10,1.2-19.5,3.8-28.8c5.8-20.5,15.5-38.7,30.9-53.5c11.6-11.2,25-18.8,41.7-20.1
		c0.1,0.7,0.2,1.4,0.2,2.1c0,7.7,0,15.4,0,23.2c0,1.2,0.2,2.3-1.5,2.7c-14.3,2.7-24.4,11.3-32.4,22.9c-5.5,7.8-9.1,16.5-11.3,26
		c7.1,0,14.1,0,21.3,0c0-6,0-11.9,0-18c8.9,0,17.5,0,26.2,0c0,14.5,0,29,0,43.6C121.1,155,94.9,155,68.4,155z M109.8,100.3
		c-0.2-0.2-0.3-0.4-0.5-0.5c-1.5,1.6-2.8,3.5-4.5,4.9c-8.5,6.6-16.9,13.1-25.6,19.4c-3.3,2.4-5.8,4.9-6.3,9.1
		c-0.4,3.1-1.2,6.1-1.5,9.2c-0.4,3.4-0.5,6.8-0.8,10.4c5.7,0,10.9,1,15.3-3c2-1.9,4.5-3.4,6.8-4.9c5.9-4.1,11.7-8.1,17.6-12.1
		c-0.1-0.2-0.1-0.4-0.2-0.6c-4.3,0-8.5,0-13.6,0c2-5.9,3.4-11.4,5.6-16.6C104.2,110.2,107.2,105.3,109.8,100.3z M142.7,55.5
		c-0.3-0.1-0.5-0.3-0.8-0.4c-7.8,12-15.6,24-23.2,35.7c6.8-6,14.6-10.7,24-12.6C142.7,70.5,142.7,63,142.7,55.5z M123.7,120
		c0.2,0.1,0.4,0.2,0.5,0.3c1.5-2,2.9-4.1,4.6-6.4c-2.1,0-3.6,0-5.2,0C123.7,116,123.7,118,123.7,120z"/>
	<path class="st0" d="M565.5,52.7c9,0.5,17.3,3,25,7.2c14.9,7.9,26.2,19.5,35.1,33.5c11.8,18.7,18.6,39,18.9,61.5
		c-8.4,0-16.7,0-25.2,0c-0.5-4.4-1.2-8.9-1.6-13.4c-0.2-2.2-1.2-2.7-3.2-2.7c-7.7,0.1-15.4,0-23.5,0c0,5.5,0,10.7,0,16.1
		c-8.7,0-17,0-25.6,0C565.5,120.9,565.5,86.9,565.5,52.7z M612.4,115.7c0.7-1.3,1.2-2.3,1.6-3.2c2.1-5.3,4.3-10.5,6.2-15.9
		c1-2.8,2-5.6-0.8-8.4c-4.7-4.7-9.1-9.9-13.6-14.8c-1.6-1.8-3-2.4-5.6-1C588.1,78.7,576.8,86,569.6,98c-1,1.7-1.8,3.8-1.8,5.8
		c-0.1,15.3-0.1,30.5-0.1,45.8c0,1,0.1,2,0.1,3.2c4.9,0,9.6,0.2,14.2-0.1c2.8-0.1,6.5-4.7,6.6-7.6c0-2.8,0-5.7,0-8.7
		c3.6,0,6.8,0.1,10-0.1c1.1-0.1,2.6-0.4,3.1-1.2c2-2.6,3.6-5.3,5.3-8.1c0.8-1.2,1.2-2.7,2.1-4.5c-7.2,0-13.8,0-20.3,0
		c0-12.7,0-25,0-37.6C599.8,93.1,606.5,103.8,612.4,115.7z M641.7,152.7c1.2-7-3.3-29.7-6.4-32.3c-1,1.6-2.2,3.1-3.1,4.7
		c-3.1,5.4-5.7,11-9.2,16.1c-2.6,3.8-2.1,7.5-1.4,11.5C628.4,152.7,635.1,152.7,641.7,152.7z M611.6,120.2
		c-4.9-11.5-11-21.7-20.4-30.4c0,10.5,0,20.4,0,30.4C598,120.2,604.6,120.2,611.6,120.2z M586.9,61.6c0.1-0.3,0.2-0.6,0.3-1
		c-3.6-1.2-7.3-2.5-11-3.6c-0.4-0.1-1.1,0.5-1.6,0.8c-1.6,1-3.2,1.9-4.8,3c-0.8,0.5-2,1.3-2,2c-0.2,4-0.1,8.1-0.1,12.3
		C574.5,70.4,580.7,66,586.9,61.6z"/>
	<path class="st0" d="M213.3,155c-18.1,0-36,0-54.1,0c0-33.7,0-67.3,0-101.1c8.6,0,17.2,0,26,0c0,25.4,0,50.7,0,76.4
		c9.5,0,18.7,0,28.1,0C213.3,138.7,213.3,146.7,213.3,155z M211.8,132.9c-8.5,0-16,0-23.6,0.1c-0.8,0-1.8,0.6-2.4,1.2
		c-4,4.2-8,8.3-11.9,12.6c-1.4,1.6-2.3,3.6-3.8,6c1.7,0,2.6,0,3.5,0c7.7,0,15.4-0.1,23.2,0.1c3.4,0.1,5.8-0.6,7.1-4
		c0.7-1.8,2.2-3.3,3-5.1C208.6,140.4,210,137,211.8,132.9z M161.7,56.2c0,7,0,13.8,0,21.1c7.6-5.9,13.9-12.2,17.8-21.1
		C173.3,56.2,167.6,56.2,161.7,56.2z M161.8,151.7c1.1-2,2-3.6,2.9-5.3c5.1-9.2,9.9-18.5,17.4-26.1c0.5-0.5,0.8-1.4,0.8-2.2
		c0.1-3.3,0.1-6.6,0-9.9c0-0.6-0.3-1.2-0.6-2.1c-0.9,1.6-1.6,2.7-2.2,3.9c-4.8,8.8-9.2,17.7-14.4,26.2
		C162.7,141,160.5,145.5,161.8,151.7z"/>
	<path class="st0" d="M758.3,53.7c-4.3,9.2-8.4,17.9-12.6,27c9.4,0,18.4,0,27.8,0c-0.6,1.7-1,2.9-1.5,4.2
		c-8.8,22.7-17.7,45.3-26.5,68c-0.7,1.8-1.6,2.5-3.6,2.4c-9.4-0.1-18.7-0.1-28.5-0.1c9.2-21.4,18.2-42.6,27.4-64
		c-10,0-19.6,0-29.5,0c0.3-1,0.4-1.7,0.7-2.3c4.9-11,9.9-21.9,14.8-32.9c0.7-1.6,1.5-2.3,3.5-2.3C739.6,53.7,748.6,53.7,758.3,53.7z
		 M770.1,83.1c-1.8,0-3.3-0.1-4.7,0.1c-0.5,0.1-1.2,0.8-1.4,1.3c-0.9,3.3-1.7,6.7-2.6,9.9c-1.6,5.4-4,10.2-9,13.5
		c-6.1,4.1-12,8.3-17.9,12.7c-2.1,1.5-4.6,3-5.6,5.2c-4.1,8.5-7.6,17.3-11.3,26c-0.1,0.2,0,0.5,0,1.2c6.8-0.8,13.6,1.1,20.4-1.5
		c4.2-1.6,7.1-3.5,8.8-8.1c5.2-14.3,11-28.4,16.5-42.6C765.5,94.9,767.7,89.2,770.1,83.1z"/>
	<path class="st0" d="M677.7,53.8c0,25.5,0,50.8,0,76.5c9.4,0,18.7,0,28.1,0c0,8.4,0,16.4,0,24.7c-17.9,0-35.9,0-54,0
		c0-33.7,0-67.4,0-101.1C660.5,53.8,669,53.8,677.7,53.8z M675.5,76.3c-0.8,0.1-1.4,0-1.8,0.2c-5,3.5-10,7.1-14.9,10.7
		c-3.5,2.6-5,5.8-4.9,10.4c0.3,14.6,0.1,29.2,0.1,43.9c0,1,0.1,2.1,0.2,3.1c6.9-6.1,12.9-12.5,19.2-18.7c1.9-1.9,2.2-4,2.2-6.4
		c-0.1-10.4,0-20.8,0-31.2C675.5,84.3,675.5,80.4,675.5,76.3z M703.6,152.6c0-3.2,0-6.2,0-10.1c-5.3,3.3-10.1,6.3-14.9,9.3
		c0.1,0.3,0.2,0.5,0.3,0.8C693.8,152.6,698.5,152.6,703.6,152.6z"/>
	<path class="st0" d="M398.2,53.8c8.5,0,17,0,25.6,0c0,33.7,0,67.3,0,101.1c-8.4,0-16.9,0-25.6,0C398.2,121.3,398.2,87.6,398.2,53.8
		z M400.3,152.8c5.9,0,11.5,0,17.1,0c4.3,0,4.4,0,4.4-4.3c0-27.6,0-55.2,0-82.8c0-0.8,0-1.6,0-2.9c-1.3,1.1-2.4,1.7-3.2,2.6
		c-4.7,4.9-9.3,9.9-14,14.9c-2.8,3-4.5,6-4.4,10.5c0.3,15.4,0.1,30.9,0.1,46.4C400.3,142.2,400.3,147.3,400.3,152.8z"/>
</g>
</svg>
