<svg id="Layer_1" data-name="Layer 1" xmlns="http://www.w3.org/2000/svg" viewBox="0 0 841.89 841.89"><defs><style>.cls-1{fill:#fff;}</style></defs><title>instagram</title><path class="cls-1" d="M579.71,66.61H262.18c-107.84,0-195.57,87.73-195.57,195.57V579.71c0,107.84,87.73,195.57,195.57,195.57H579.71c107.84,0,195.57-87.75,195.57-195.57V262.18c0-107.84-87.73-195.57-195.57-195.57ZM712.4,579.71c0,73.17-59.52,132.69-132.69,132.69H262.18c-73.17,0-132.69-59.52-132.69-132.69V262.18c0-73.17,59.52-132.69,132.69-132.69H579.71c73.17,0,132.69,59.52,132.69,132.69Zm0,0"/><path class="cls-1" d="M420.94,248.84c-100.7,0-182.61,81.91-182.61,182.58S320.24,614,420.94,614s182.62-81.91,182.62-182.62S521.62,248.84,420.94,248.84Zm0,302.3A119.73,119.73,0,1,1,540.68,431.42,119.86,119.86,0,0,1,420.94,551.14Zm0,0"/><path class="cls-1" d="M611.21,199.73a31.39,31.39,0,1,0,22.22,9.19,31.52,31.52,0,0,0-22.22-9.19Zm0,0"/></svg>