<?xml version="1.0" encoding="utf-8"?>
<!-- Generator: Adobe Illustrator 22.1.0, SVG Export Plug-In . SVG Version: 6.00 Build 0)  -->
<svg version="1.1" id="Layer_1" xmlns="http://www.w3.org/2000/svg" xmlns:xlink="http://www.w3.org/1999/xlink" x="0px" y="0px"
	 viewBox="0 0 841.9 841.9" style="enable-background:new 0 0 841.9 841.9;" xml:space="preserve">
<style type="text/css">
	.st0{fill:#FFFFFF;}
</style>
<g>
	<path class="st0" d="M700.1,514.8c-0.8-0.8-1.9-1.5-3.5-2.2c-1.5-0.7-3.4-1.4-5.7-2.2c-1.9-0.7-3.7-1.2-5.1-1.6
		c-1.5-0.4-2.8-0.5-3.9-0.5c-1.1,0.1-2.1,0.4-2.8,1c-0.8,0.6-1.4,1.6-1.8,2.8l-1,2.9l23.8,8.3l1.1-3c0.4-1.2,0.5-2.2,0.4-3.1
		C701.4,516.3,700.9,515.5,700.1,514.8z"/>
	<path class="st0" d="M655.2,569.2c-2.8-1.8-5.1-1.3-6.9,1.5l-1.9,2.9l8.7,5.7l1.6-2.5c0.9-1.5,1.3-2.8,1.2-4.1
		C657.8,571.4,656.9,570.2,655.2,569.2z"/>
	<path class="st0" d="M623.2,630.4c-1.1-1.3-2.5-2.8-4.1-4.6c-1.6-1.8-3.1-3.2-4.3-4.4c-1.2-1.1-2.3-2-3.3-2.5
		c-1-0.5-1.9-0.7-2.7-0.7c-0.8,0.1-1.6,0.5-2.4,1.2c-0.8,0.7-1.2,1.5-1.4,2.3c-0.1,0.8,0,1.7,0.5,2.8c0.5,1,1.2,2.2,2.3,3.5
		c1.1,1.3,2.4,2.8,4.1,4.6c1.6,1.8,3.1,3.2,4.3,4.4c1.2,1.2,2.4,2,3.3,2.5c1,0.5,1.9,0.7,2.7,0.7c0.8-0.1,1.6-0.5,2.4-1.3
		c0.8-0.7,1.2-1.5,1.4-2.3c0.2-0.8,0-1.7-0.5-2.7C625,632.9,624.2,631.8,623.2,630.4z"/>
	<path class="st0" d="M433.2,693.4l-3.4,0.2l0.5,10.3l3-0.1c1.8-0.1,3.1-0.6,4-1.4c0.9-0.9,1.3-2.3,1.2-4.2
		C438.3,694.8,436.6,693.2,433.2,693.4z"/>
	<path class="st0" d="M456.9,269.5c-8.1-12-18.5-16-32.3-12.9c-11.9,2.8-20.9,10.1-29,18.8c-13.4,14.3-23.4,31-31.5,48.9
		c-8.5,18.9-14,38.5-11.5,59.6c2.1,19.1,13.5,30.7,30.2,30.7c13.6-0.1,24.7-6.6,35.2-14.4c18.5-13.8,33.1-31.5,46.2-50.5
		c13.4-19.2,13.4-19.3,7.6-42C468.3,294.4,464.7,281,456.9,269.5z"/>
	<polygon class="st0" points="342.7,153.9 334.7,139.4 334.6,139.5 336,155.9 	"/>
	<path class="st0" d="M420.8,79.5c-189,0-342.3,153.2-342.3,342.3c0,189,153.3,342.2,342.3,342.2c189,0,342.2-153.2,342.2-342.2
		C763,232.7,609.8,79.5,420.8,79.5z M395.6,121.5l6.8,24.9h0.1l3.5-25.6l10.7-0.7l2.3,35.8l-6.6,0.5l-1.9-28.6h-0.1l-4.5,29
		l-5.6,0.4l-8.2-28.2h-0.1l1.9,28.6l-6.6,0.5l-2.4-35.8L395.6,121.5z M337.1,132.2l19.6,31.6l-7.2,2.2l-3.8-6.8l-9.1,2.8l0.6,7.7
		l-7.2,2.2l-1.4-37.1L337.1,132.2z M127.9,350.5c0.5-1.8,1.1-3.2,2-4.3c0.9-1.1,1.9-1.9,3.1-2.4c1.2-0.5,2.4-0.8,3.7-0.8
		c1.3,0,2.7,0.1,3.9,0.4c1.8,0.4,3.3,1,4.5,1.9c1.2,0.9,2.1,1.9,2.8,3c0.6,1.2,1,2.5,1.1,3.9c0.1,1.5,0,3.1-0.4,4.7l-0.9,3.7l14,3.3
		l-1.7,7l-34.9-8.2L127.9,350.5z M119.6,414.3l29.9,0.9l0.4-12.8l5.9,0.2l-0.6,20l-35.8-1.1L119.6,414.3z M124.7,478l-1.5-8.8
		l33.7-15.5l1.3,7.4l-7.2,3l1.6,9.4l7.8,0.4l1.3,7.4L124.7,478z M182.5,304.6l-14.4-6.8l-3.6,7.6l14.4,6.8l-3.1,6.5l-32.5-15.3
		l3.1-6.6l12.4,5.9l3.6-7.6l-12.4-5.9l3.1-6.5l32.5,15.3L182.5,304.6z M214,255.2l-7.1-3.3l-5.8,7.6l5,5.9l-4.6,6L178.9,242l5.4-7.1
		l34.2,14.3L214,255.2z M253.8,215.3l-2.1-2.5l-0.1,0.1c0.2,1.6,0.1,3.1-0.5,4.3c-0.5,1.2-1.4,2.4-2.8,3.5c-1.7,1.4-3.3,2.3-4.9,2.6
		c-1.6,0.3-3.2,0.1-4.8-0.6c-1.6-0.7-3.3-1.9-5.1-3.5c-1.7-1.6-3.6-3.6-5.6-6c-2-2.3-3.6-4.4-4.7-6.4c-1.2-2-1.9-3.9-2.2-5.6
		c-0.3-1.8-0.1-3.4,0.6-5.1c0.6-1.6,1.8-3.1,3.6-4.6c3-2.6,5.8-3.7,8.4-3.3c2.6,0.4,5.1,1.9,7.5,4.7l-5.3,4.5
		c-0.4-0.5-0.9-1-1.5-1.4c-0.6-0.5-1.2-0.8-1.8-1c-0.6-0.2-1.2-0.3-1.9-0.3c-0.6,0-1.2,0.3-1.8,0.8c-1.3,1.1-1.6,2.7-1,4.6
		c0.7,2,2.5,4.7,5.4,8.1c1.4,1.6,2.7,3.1,3.9,4.3c1.3,1.3,2.4,2.2,3.4,3c1.1,0.7,2.1,1.1,3,1.1c0.9,0.1,1.8-0.2,2.6-0.9
		c0.3-0.3,0.6-0.7,0.8-1.2c0.2-0.5,0.4-1.1,0.5-1.8c0-0.6-0.1-1.3-0.3-2.1c-0.2-0.7-0.7-1.5-1.3-2.2l-2.4-2.8l-3.6,3.1l-3.5-4.1
		l8.9-7.6l12.5,14.7L253.8,215.3z M285.5,193.2l-17.3-31.5l6.4-3.5l14.4,26.3l11.2-6.2l2.9,5.2L285.5,193.2z M448.3,723.3l-7.8,0.4
		c-0.4-0.5-0.7-1-0.8-1.7c-0.1-0.6-0.2-1.3-0.3-2l-0.5-6.9c-0.2-1.4-0.6-2.5-1.2-3.3c-0.7-0.8-1.8-1.1-3.3-1l-3.9,0.2l0.7,15.2
		l-7.2,0.4l-1.7-35.8l13.3-0.7c3-0.2,5.4,0.5,7.1,1.9c1.7,1.4,2.7,3.7,2.9,6.9c0.1,2.4-0.3,4.4-1.2,6c-0.9,1.5-2.3,2.6-4.4,3.1v0.1
		c1.8,0.2,3.2,0.7,4,1.6c0.9,0.9,1.5,2.3,1.8,4.3c0.1,0.6,0.2,1.4,0.3,2.2c0,0.8,0.1,1.6,0.2,2.6c0.2,1.9,0.3,3.4,0.5,4.4
		c0.2,1,0.7,1.7,1.4,2V723.3z M495.9,715l-10-34.5l19.2-5.6l1.6,5.7l-12.3,3.5l2.3,8.1l11.6-3.4l1.7,5.7l-11.6,3.3l2.7,9.3l12.8-3.7
		l1.6,5.7L495.9,715z M574.9,681.5c-0.9,1.4-2.5,2.7-4.5,3.8c-2.4,1.3-4.5,2-6.3,2.1c-1.8,0-3.5-0.5-5.1-1.5c-1.5-1-3-2.4-4.3-4.3
		c-1.4-1.9-2.7-4-4.1-6.4c-1.3-2.3-2.5-4.6-3.4-6.7c-0.9-2.1-1.4-4.1-1.5-6c-0.1-1.8,0.4-3.6,1.3-5.2c0.9-1.6,2.6-3,5-4.4
		c2.2-1.3,4.2-1.9,5.9-1.9c1.7,0,3.2,0.4,4.5,1.1c1.3,0.8,2.4,1.7,3.3,2.9c0.9,1.2,1.7,2.4,2.3,3.5l-6.3,3.6
		c-1.3-2.3-2.5-3.8-3.6-4.5c-1.1-0.7-2.4-0.7-3.8,0.1c-0.8,0.5-1.3,1.1-1.6,1.7c-0.3,0.7-0.3,1.6,0,2.7c0.2,1.2,0.7,2.5,1.5,4.1
		c0.7,1.6,1.7,3.5,3,5.7c1.3,2.3,2.5,4.2,3.5,5.6c1,1.4,1.9,2.4,2.7,3c0.8,0.6,1.5,0.9,2.2,0.9c0.7,0,1.3-0.2,2-0.6
		c0.6-0.3,1-0.7,1.4-1.2c0.4-0.5,0.6-1.1,0.6-1.8c0-0.8-0.2-1.7-0.6-2.9c-0.4-1.2-1-2.6-2-4.3l6.3-3.6c0.9,1.7,1.7,3.4,2.3,5
		c0.6,1.7,0.9,3.3,0.8,4.8C576.4,678.6,575.9,680.1,574.9,681.5z M517.4,426.9c-12.8-10.4-18.9-24.9-22.9-40.5
		c-0.2-0.7-0.5-1.4-0.7-2.1L454,449.6l57.2-1.6L331,639.7l100.5-152.4l-48.2,2.1l32.9-55.4c-1.2,0.3-2.3,0.7-3.6,1
		c-7,1.5-14.2,2.4-21.3,3.6h-11.3c-1.6-0.4-3.3-1-5-1.1c-14.8-1.1-28.4-5.7-40.2-14.8c-24-18.5-30.3-44.2-23.7-72.3
		c12.6-53.5,46-89.3,95.5-109.3c16-6.5,33.1-8.3,50.1-4.6c21.6,4.7,35,19.7,43.8,39.6c1.3,3,2.6,6.1,4.2,10c1.4-2.1,2.4-3.5,3.3-4.9
		c7-11.3,14-22.6,20.7-33.9c1.9-3.2,4-4.6,7.8-4.5c8.5,0.3,17,0.1,25.5,0.1h19.3c-1.1,2.1-1.8,3.5-2.6,4.8
		c-16.6,26.8-32.7,53.9-50,80.1c-6.2,9.5-8,17.6-3.7,28.2c5.1,12.6,8.5,25.9,13.3,38.6c5.1,13.1,14.8,21,28.6,22.8
		c5,0.7,10.1,0.3,15.1,0.4c2.4,0,4.8,0,7.6,0C573.8,439.8,538.5,444.1,517.4,426.9z M632,637.3c-0.6,1.8-1.9,3.6-3.8,5.4
		c-2,1.8-3.9,3-5.6,3.5c-1.8,0.5-3.5,0.4-5.3-0.2c-1.8-0.6-3.5-1.7-5.2-3.2c-1.7-1.5-3.6-3.2-5.5-5.2c-1.8-2-3.5-3.9-4.9-5.7
		c-1.4-1.8-2.3-3.7-2.8-5.4c-0.5-1.8-0.5-3.6,0.1-5.4c0.5-1.8,1.8-3.6,3.8-5.4c2-1.9,3.9-3,5.6-3.4c1.8-0.4,3.6-0.3,5.3,0.3
		c1.8,0.6,3.5,1.7,5.3,3.2c1.7,1.5,3.5,3.2,5.4,5.2c1.9,2,3.5,3.9,4.9,5.8c1.4,1.8,2.3,3.6,2.8,5.4
		C632.5,633.9,632.5,635.6,632,637.3z M677.1,582.4c-0.6,0-1.2-0.1-1.8-0.3c-0.6-0.3-1.2-0.6-1.8-1l-5.9-3.6c-1.2-0.7-2.3-1-3.4-0.9
		c-1,0.1-1.9,0.8-2.8,2.1l-2.1,3.2l12.7,8.3l-3.9,6.1L638,576.7l7.3-11.2c1.6-2.5,3.5-4.1,5.7-4.6c2.2-0.6,4.6,0,7.2,1.7
		c2,1.3,3.4,2.8,4.1,4.4c0.8,1.6,0.8,3.5,0,5.4l0.1,0c1.2-1.3,2.4-2.1,3.6-2.3c1.2-0.2,2.8,0.2,4.5,1.1c0.6,0.3,1.3,0.7,1.9,1
		c0.7,0.4,1.4,0.9,2.3,1.4c1.7,1,2.9,1.7,3.8,2.1c0.9,0.4,1.8,0.4,2.4,0l0.3,0.2L677.1,582.4z M706.5,521.2l-3.7,10.8l-33.8-11.8
		l3.9-11.2c0.9-2.4,1.9-4.1,3.2-5.3c1.2-1.2,2.8-1.9,4.5-2.3c1.7-0.3,3.7-0.2,5.8,0.2c2.1,0.5,4.4,1.1,6.9,1.9c3,1,5.5,2.1,7.6,3.2
		c2.1,1.2,3.7,2.4,4.8,3.8c1.1,1.4,1.8,2.9,1.9,4.7C707.6,516.9,707.3,518.9,706.5,521.2z M718.9,459.5c-1.9,1.6-4.6,2.2-7.9,1.9
		l-1.4-0.2l0.7-7.2l1,0.1c0.9,0.1,1.6,0.1,2.3,0c0.7,0,1.3-0.2,1.8-0.6c0.5-0.3,0.9-0.8,1.2-1.4c0.4-0.6,0.6-1.4,0.7-2.3
		c0.1-1.1-0.2-2.1-0.8-3.1c-0.7-1-1.7-1.5-3.2-1.6c-0.8-0.1-1.5,0-2.1,0.1c-0.6,0.2-1.1,0.5-1.6,0.9c-0.5,0.5-1,1.1-1.5,1.8
		c-0.4,0.8-0.9,1.8-1.4,2.9c-0.7,1.6-1.4,2.9-2.1,4c-0.7,1.1-1.6,2-2.5,2.7c-0.9,0.7-2,1.2-3.1,1.5c-1.2,0.2-2.5,0.3-3.9,0.2
		c-3.5-0.3-6-1.6-7.6-3.7c-1.5-2.1-2.1-4.9-1.8-8.3c0.1-1.6,0.5-3,0.9-4.4c0.5-1.3,1.1-2.5,2-3.3c0.9-0.9,2-1.6,3.2-2
		c1.3-0.5,2.8-0.6,4.5-0.5l1,0.1l-0.7,6.9c-1.7-0.2-3,0-4,0.5c-1,0.5-1.5,1.5-1.7,2.9c-0.1,0.8,0,1.4,0.2,2c0.2,0.6,0.4,1,0.8,1.4
		c0.4,0.4,0.8,0.6,1.3,0.8c0.5,0.2,1,0.3,1.5,0.3c1.1,0.1,2.1,0,2.9-0.4c0.7-0.4,1.6-1.3,2.3-2.8l3-5.3c0.7-1.3,1.4-2.3,2.2-3.2
		c0.7-0.8,1.5-1.4,2.3-1.9c0.8-0.4,1.6-0.7,2.6-0.8c0.9-0.1,1.9-0.1,3,0c3.8,0.4,6.4,1.7,7.9,4c1.5,2.4,2.1,5.5,1.7,9.4
		C722,455.1,720.9,458,718.9,459.5z"/>
	<polygon class="st0" points="201.5,249.3 186.6,242.2 186.5,242.3 197.2,254.9 	"/>
	<polygon class="st0" points="130.1,472.5 130.1,472.6 146.6,473.3 145.4,466.3 	"/>
	<path class="st0" d="M139.1,350.4c-1.7-0.4-3.2-0.3-4.3,0.2c-1.1,0.5-1.8,1.7-2.3,3.4l-0.7,3l10.6,2.5l0.8-3.2
		c0.3-1.4,0.2-2.6-0.5-3.7C142.1,351.6,140.9,350.9,139.1,350.4z"/>
</g>
</svg>
