<?xml version="1.0" encoding="utf-8"?>
<!-- Generator: Adobe Illustrator 22.1.0, SVG Export Plug-In . SVG Version: 6.00 Build 0)  -->
<svg version="1.1" id="Layer_1" xmlns="http://www.w3.org/2000/svg" xmlns:xlink="http://www.w3.org/1999/xlink" x="0px" y="0px"
	 viewBox="0 0 841.9 841.9" style="enable-background:new 0 0 841.9 841.9;" xml:space="preserve">
<style type="text/css">
	.st0{fill:#FFFFFF;}
</style>
<g>
	<path class="st0" d="M774.1,153.6c-37.5-49.2-94.5-77.2-174.3-85.8c-7.7-0.8-14.7-1.1-21.6-1.1c-56.5,0-113.5,21-157.3,56.6
		c-43.7-35.5-100.7-56.6-157.1-56.6c-7,0-14,0.4-21.7,1.1c-79.8,8.6-136.9,36.6-174.3,85.8C30.7,202.3,18.3,267.3,31,345.1
		c5.9,35.7,23.7,72.1,48.6,111H219l83.7-234c2.5-6.9,9.4-11.5,16.6-10.6c7.2,0.9,12.8,6.6,13.5,13.9l24.8,289.8L404,347.7
		c1.9-6.8,8.2-11.6,15.3-11.4c7.1,0.2,13.2,5.1,14.8,12L460,460.5l44.2-185.6c1.7-7.3,8.4-12.2,15.8-11.9c7.5,0.4,13.6,6,14.6,13.4
		l33,235.1l14.8-48.2c2-6.5,8-11.4,14.8-11.4h166.1c24.4-34.6,41.7-72.8,47.5-108C823.6,266,811.2,202.3,774.1,153.6z"/>
	<path class="st0" d="M576.8,586.2c-2.2,6.9-8.9,11.9-16.1,11.3c-7.2-0.6-13.1-5.9-14.1-13.1l-31.2-222.3l-40.5,169.4
		c-1.7,7-7.9,11.2-15.1,11.2h0c-7.2,0-13.5-4.2-15.1-11.3l-27-116.9l-53.2,191.9c-1.9,6.8-8,11.5-14.9,11.5c-0.5,0-1,0-1.5,0
		c-7.5-0.7-13.4-6.6-14-14.1l-26.1-305.1l-63.3,177c-2.2,6.2-8.1,10.8-14.6,10.8H102c51.6,64.9,122.4,133.4,184.4,191.7
		c0,0,52.8,52.8,68.7,66.4c12,10.2,37.8,30.7,65.9,30.7c28,0,53.9-20.7,65.8-30.9c15.9-13.6,68.7-67.5,68.7-67.5
		c62.5-58.8,134-125.6,185.7-194.8H608.7L576.8,586.2z"/>
</g>
</svg>
