<?xml version="1.0" encoding="utf-8"?>
<!-- Generator: Adobe Illustrator 22.1.0, SVG Export Plug-In . SVG Version: 6.00 Build 0)  -->
<svg version="1.1" id="Layer_1" xmlns="http://www.w3.org/2000/svg" xmlns:xlink="http://www.w3.org/1999/xlink" x="0px" y="0px"
	 viewBox="0 0 841.9 841.9" style="enable-background:new 0 0 841.9 841.9;" xml:space="preserve">
<style type="text/css">
	.st0{fill:#FFFFFF;}
</style>
<path class="st0" d="M420.9,66.6c-195.7,0-354.3,158.6-354.3,354.3s158.6,354.3,354.3,354.3s354.3-158.6,354.3-354.3
	S616.6,66.6,420.9,66.6z M575.2,580.8C575.2,580.8,575.2,580.8,575.2,580.8c-6.8,11.6-21.6,15.5-33.2,8.8l0,0
	c-63.7-37.2-137.2-43.2-187.7-41.7c-56,1.7-97,12.8-97.4,12.9c-12.9,3.6-26.3-4-29.8-16.9c-3.6-12.9,4-26.3,16.9-29.8
	c1.8-0.5,46-12.5,107.4-14.5c36.2-1.2,71,1.3,103.5,7.5c41.2,7.8,78.7,21.5,111.6,40.7C578,554.4,581.9,569.2,575.2,580.8z
	 M620.2,487.2C620.2,487.2,620.2,487.3,620.2,487.2c-8,13.7-25.6,18.4-39.3,10.4C512.3,457.4,433.8,448,375.2,448
	c-5.8,0-11.3,0.1-16.6,0.3c-66.3,2-114.9,15.1-115.4,15.2c-15.3,4.1-31-5-35.2-20.3c-4.1-15.2,4.8-30.8,20-35.1
	c2.2-0.6,54.5-14.8,127.2-17.2c42.8-1.4,84.1,1.6,122.6,8.9c48.7,9.2,93.2,25.5,132.1,48.2C623.6,456,628.2,473.5,620.2,487.2z
	 M658.6,380.8c-5.8,9.9-16.5,16.1-28,16.1h0c-5.7,0-11.3-1.5-16.3-4.4c-165.2-96.6-379.6-39.2-381.7-38.6
	c-17.4,4.5-35.1-5.9-39.5-23.3c-4.4-17,5.5-34.4,22.3-39.3c2.5-0.7,61.6-16.7,143.7-19.4c48.4-1.6,95,1.8,138.5,10
	c55.1,10.4,105.3,28.8,149.4,54.5C662.4,345.5,667.6,365.4,658.6,380.8z"/>
</svg>
