<?xml version="1.0" encoding="utf-8"?>
<!-- Generator: Adobe Illustrator 22.1.0, SVG Export Plug-In . SVG Version: 6.00 Build 0)  -->
<svg version="1.1" id="Layer_1" xmlns="http://www.w3.org/2000/svg" xmlns:xlink="http://www.w3.org/1999/xlink" x="0px" y="0px"
	 viewBox="0 0 841.9 841.9" style="enable-background:new 0 0 841.9 841.9;" xml:space="preserve">
<style type="text/css">
	.st0{fill:#FFFFFF;}
</style>
<path class="st0" d="M675.2,742h-20.1v-39.6c0-9.2-9.8-16.6-21.9-16.6h-23.8V553c0-42.9-28.5-82.2-76.3-105.2l-54.9-26.4l3.1-2.3
	l51.9-25c47.7-23,76.3-62.3,76.3-105.2V156.1h23.8c12.1,0,21.9-7.4,21.9-16.6V99.8h20.1c12.1,0,21.9-7.4,21.9-16.6
	s-9.8-16.6-21.9-16.6H166.7c-12.1,0-21.9,7.4-21.9,16.6s9.8,16.6,21.9,16.6h20.1v39.6c0,9.2,9.8,16.6,21.9,16.6h23.8v132.8
	c0,42.9,28.5,82.2,76.3,105.2l45.4,21.9l8.7,5.8l-54.1,26c-47.8,23-76.3,62.3-76.3,105.2v132.8h-23.8c-12.1,0-21.9,7.4-21.9,16.6
	V742h-20.1c-12.1,0-21.9,7.4-21.9,16.6c0,9.2,9.8,16.6,21.9,16.6h508.6c12.1,0,21.9-7.4,21.9-16.6C697.1,749.5,687.3,742,675.2,742
	L675.2,742z M565.6,553v4.7l-122.7-36.7v-77.5c1.3,0.8,2.6,1.6,4.1,2.3l62.7,30.2C544.7,492.7,565.6,521.5,565.6,553L565.6,553z
	 M565.6,156.1v132.8c0,14-4.2,27.5-11.8,39.6H288.2c-7.7-12.1-11.8-25.6-11.8-39.6V156.1H565.6z M332.2,475.9l62.7-30.2
	c1.4-0.7,2.8-1.4,4.1-2.3V521l-122.7,36.7V553C276.3,521.5,297.2,492.7,332.2,475.9L332.2,475.9z M332.2,475.9"/>
</svg>
