<?xml version="1.0" encoding="utf-8"?>
<!-- Generator: Adobe Illustrator 22.1.0, SVG Export Plug-In . SVG Version: 6.00 Build 0)  -->
<svg version="1.1" id="Layer_1" xmlns="http://www.w3.org/2000/svg" xmlns:xlink="http://www.w3.org/1999/xlink" x="0px" y="0px"
	 viewBox="0 0 841.9 207.7" style="enable-background:new 0 0 841.9 207.7;" xml:space="preserve">
<style type="text/css">
	.st0{fill:#FFFFFF;}
	.st1{fill:#020304;}
</style>
<g>
	<g>
		<polygon class="st1" points="86.5,133.2 102.7,126 93.3,138 88.4,141 80.6,144 71.6,146.2 59,147.4 49,147.5 39.3,146.2 
			31.2,143.1 27,138.4 25.5,134.3 25.6,128.1 27.1,123.5 30.5,115.9 35.7,110.1 42.7,105.6 49.1,102.6 44.4,100.2 41.4,95 
			40.4,91.1 40.4,85.7 41.5,80.5 43.6,73.1 46.8,67.9 51.7,62.9 60.4,56 65.2,54.3 75,51.3 85.3,51.9 107.3,61.4 80.1,58.9 
			73.8,59.4 66.3,62.2 58.7,69.7 56.9,72.4 55.4,76.5 55,78.9 54.1,82.3 54.1,84.9 56.1,91.1 58,92.7 64.9,94.1 76.3,94.2 
			84.3,92.8 84.7,94.2 85.3,97.2 85.6,98 68.5,103.3 61.1,106.6 50.7,113.1 48,115.7 44.3,122.6 43.6,128 44.9,130.9 47,133.6 
			51.9,135.7 59,136.5 79.7,134.9 		"/>
		<path class="st1" d="M87.6,94.2l1.8,1.5h0.1l3.7-1.4L87.6,94.2z"/>
	</g>
	<g>
		<path class="st1" d="M87.6,94.2l1.8,1.5h0.1l3.7-1.4L87.6,94.2z"/>
	</g>
	<g>
		<polygon class="st1" points="233.9,122.6 233.9,122.7 227.3,137.3 225,139.9 222.5,143 218.2,145.7 213.6,146.9 207,146.6 
			202.5,145.4 198.6,142.6 197,138 196.4,134.3 196.4,132.1 195.4,134.6 192,140.6 187.6,145 179.9,147 172.2,146.9 171.4,146.6 
			171.8,146.9 147.1,144.9 140.1,146.4 126.7,127.9 113,146.7 101.3,146.7 120.2,120.4 87.6,94.2 84.6,91.9 106.2,93.9 112.8,92.3 
			126.6,112.2 140,92.6 152,92.6 132.8,119.2 164.6,141.9 162.7,139.5 160.7,132.6 159.9,126.6 159.9,116.6 162.3,96 163.7,90.9 
			156.7,90.9 161.9,74 166.9,81.4 167.3,81.4 169.2,77.6 176.5,66.7 184.6,58.3 198.9,55 186.4,67.9 182.5,73.6 178.2,82.2 
			210.8,85 188.7,90.9 175,90.9 173.6,98.8 172.4,110 172.4,115.7 173.1,121.8 174.5,128.2 176.7,131.1 179.9,132 183.7,131.7 
			187.2,130.1 190.5,126.5 199.3,113.7 199.3,113.6 200.1,111 202.8,105.9 206,101.6 202.5,101.9 201.7,96.6 225.4,90.7 
			213.5,104.5 210.8,108.7 208.4,114.5 207.5,117.8 207,125.1 207,127.9 207.6,131.1 208.7,134.1 210,135.5 212.7,135.9 215.4,136 
			218.2,135.3 221,133.4 		"/>
	</g>
	<g>
		<polygon class="st1" points="283.9,107 283.6,113.5 282.5,119.6 280.6,125.7 275.1,136.9 271.1,141.3 250.5,156.5 266,133.9 
			269.8,124.2 271.5,110.3 270.8,106.7 269.3,103.9 266.9,102 263.5,101.1 257.3,101.5 251.9,102.9 245.5,106.1 245.5,106.2 
			245.8,109.3 245.9,116 245.8,124.3 243.9,133 241.7,137.4 239,141.8 234.4,146.4 219.8,154.9 229.5,139.7 233.4,128.9 
			233.9,122.7 233.9,122.6 234.3,118.3 234,108.9 232.8,100.3 232.3,99.9 214,105.2 232.4,91.3 235.9,90.5 241,90.8 244.3,96.3 
			244.7,98.7 247.8,96.6 254,93.7 262.6,91.8 270.2,92.6 277.4,94.8 282.2,100.6 		"/>
	</g>
	<g>
		<polygon class="st1" points="356.7,126.5 368.6,109.2 363.7,129.2 361.6,134.6 358.2,140.6 353.8,145 346,147 338.4,146.9 
			333.7,145.2 328.9,139.5 327.2,133.5 325.5,136.7 323.2,139.6 318.8,143.4 313.3,145.9 305.1,146.6 297.1,146.6 291.1,145.6 
			286,142.9 283.2,138.4 281.9,133.8 281.9,128.5 285.2,115.9 288.7,110.1 293.5,105.6 302.4,99.4 311.4,95 321.5,92.5 323.2,97.5 
			312,102.7 307.4,105.9 300.5,112.4 298.7,115.2 296.7,121.8 295.7,125.4 295.8,128 297.6,133.5 300.9,135.4 305.2,136 
			311.9,135.4 315.9,134.7 323.6,129.6 326.3,127.8 326.1,126.6 326.1,116.6 328.5,96 329.9,90.9 322.9,90.9 328.1,74 333,81.4 
			333.5,81.4 335.4,77.6 342.7,66.7 350.8,58.3 366.4,53.6 352.6,67.9 348.7,73.6 344.4,82.2 377,85 354.9,90.9 341.2,90.9 
			339.8,98.8 338.5,110 338.5,115.7 339.3,121.8 340.7,128.2 342.9,131.1 346,132 349.9,131.7 353.3,130.1 		"/>
	</g>
	<g>
		<polygon class="st1" points="450,111 444.4,128.9 441.7,134.1 437.3,140.5 431,144.9 422.3,146.4 413.5,146.4 412.8,146.3 
			406.3,144.3 401.1,139.1 398.4,132.1 397.3,126.1 397.2,116 398.4,107.1 400.5,95.2 403.9,85.4 409.2,76.6 418.8,65.9 429,57.6 
			447.4,53.6 430,67.4 424.8,73.3 420.6,79.5 417.4,85 415.3,90.3 413.4,98.3 411.7,109.5 411.8,115.1 414,126.9 417.9,130.3 
			421.9,131.4 429.1,130.3 433.5,129 436.9,125.7 		"/>
	</g>
	<g>
		<path class="st1" d="M529.5,139.5l-0.1,0.1l0.7,1.5L529.5,139.5z"/>
	</g>
	<g>
		<path class="st1" d="M814.7,118.4l-4.7-5.9l-8.5-2.9h-0.3l8.7-10.9l-9.6-3.9l-6.6-2l-7.8-1.1H777l-9.5,3.2l-5.3,5.1l-0.6-1.2
			l-4.4-4.2l-5.7-2.2l-5.2,0.7l-9.7,4.3l-5.1,3.4l-4.2,3.7L722,110l-3.6,4.9l-3,7.7l-0.7,5.5v1.9l-10.6,5.1l-6.4-1.4l-1.4-4.4
			l1.2-9.6l12.7-18.3l-11.7-6.7l-2.6-9.8l-18.2,15l-0.3,0.2l-1.7-11.7l-20.8,15.2l9.8,0.3l1.2,5.8l0.3,3l0.4,3.3l0.1,5.5l-1.1,8.1
			l-1.5,3.1l-2,2l-2.3,0.6l-2.2-0.3l-3.7-1.2l-2.7-1.9l-2.4-3l-2.5-6.7l-1-4.2l0.2-3.6l1.6-8.4l1.8-4.8l10.4-13.1l-14.4,6.3
			l-3.2,4.8l-1.9,3.6l-1.9,4.4l-1.6,4.8l-1.4,8.1v0.4l-4,5.8l-3.4,3.6l-3.5,1.6l-3.8,0.3l-3.2-1l-2.2-2.9l-1.4-6.4l-0.7-6V110
			l1.3-11.2l1.4-7.9h13.7l22.2-5.9l-32.9-2.7l4.4-8.7l3.9-5.7l15.5-16.1l-17.3,6.6l-8.1,8.4l-7.3,10.9l-1.9,3.8H607l-4.9-7.4
			l-5.2,16.9h7l-1.4,5.1l-2.4,20.6v10l0.5,4l-5.1,2.9l-2.5,0.7l-1.7-0.2l-0.6-0.7l-5.3-14.1l2.2-2.4l-2.5,1.6l-9.3-24.8l4.3-7.2
			l-8.8,1.5l-23.3,13l-3.3,2.1l-4.1,3.5l-7.2,9l-2.5,5.7l-1.5,5l-0.8,5v0.1l-6.4,3.8l-12.3,2.2l-5.3-0.6l-3.7-1.5l-1.7-1.8l-0.5-2
			v-3.2l0.2-0.8l2.9,3.4l33.7-24.5l-3.5-7.3l-4.4-4.2l-5.7-2.2l-5.2,0.7l-9.7,4.3l-5.1,3.4l-4.2,3.7l-5.3,5.5l-3.6,4.9l-3,7.7
			l-0.7,5.5v1.9l-10.6,5l-6.4-1.4l-1.3-4.3l1.2-9.5l12.7-18.4l-11.7-6.6l-2.7-9.9L429.9,115l21.5-7.2l8.7-4.4l6.4,4.4l-9.2,11
			l-4.9,9.7l2.3,10.8l8.4,6.3l10.4,1.8l7.7-4.2l4.9-6.8l0.6,1.8l3.3,5.1l5.2,2.6l6.6,1.1h8.7l8.4-1.2l5.8-3l4.1-2.7l0.2-0.1l0.5-0.4
			l0.1-0.1l0.6,1.6l1,2l3.6,2.2l5.5,1.4h5.9l6-0.8l6.8-1.9l6-3.6l5-3.8l5.5-6.2l4.2,11.3l3,3.2l5.2,1.9l3.4-0.2l3.6-1.3l3.2-2.2
			l4.3-5.9l0.7,2.4l4.8,5.7l4.8,1.7l7.6,0.1l7.7-2l4.4-4.4l3.4-6l0.5-1.2l0.4,1.6l2.3,4.4l6,5.6l5.1,2l6.7,0.2l5.1-1.6l5-3.4
			l4.2-5.1l3.7-8.4l2.2-7.7l1.4-10.3l-0.1-2.1v-0.1l2.7-1l8.8-4.3l6.4,4.4l-9.2,11l-4.9,9.8l2.3,10.7l8.4,6.3l10.4,1.9l7.7-4.3
			l4.9-6.8l0.5,1.8l3.4,5.1l5.2,2.6l6.6,1.1h8.7l8.4-1.2l5.7-3l4.4-2.9l2.3-2l9.6,6.1l8.7,3.2l8.1,0.4l6.8-1.2l7.7-2.3l6.6-4.3
			l6.8-7.4l1.4-7.8L814.7,118.4z M500.1,121.7l2.5-7.6l5.3-7.6l4-3.4l3.8-1.2l2.9-0.1l2,0.5l0.8,1.4l-0.1,2.2l-22.1,19.9
			L500.1,121.7z M563.1,131.5l-4.8,2.4l-5.6,1.4l-5-0.1l-3.7-1.2l-2.3-1.6l-1.4-2.4l-0.3-1.6v-3l0.4-3l3.2-6.8l3.2-4.4l4.8-4.2
			l12.6-7l9.3,25.2L563.1,131.5z M729.7,121.7l2.5-7.6l5.3-7.6l4-3.4l3.8-1.2l2.9-0.1l2,0.5l0.8,1.4l-0.1,2.2l-22.1,19.9
			L729.7,121.7z M763,128.2l-2.9,1.8l-8.4,5l-12.3,2.2l-5.3-0.6l-3.7-1.5l-1.7-1.8l-0.5-2v-3.1l0.2-1l2.9,3.4l29.6-21.6l0.1,1.9
			l3.2,5.8l4.2,4.1L763,128.2z M773.8,100.7l5.4-1.5l6.1,0.5l5.7,2.5l4.1,3.1l-0.8,5.4l-7.7,1.5l-5.1-0.3l-4.1-1.3l-0.6-0.5
			l-1.9-1.6l-2.1-2.2l-0.5-2.2L773.8,100.7z M804.7,126.1l-1.6,3.6l-2.3,3.5l-3.3,3.7l-3.8,2.4l-5.3,1.2l-5.6-1l-5.1-3.1l-4.4-4.1
			l-1.9-3.3l1.9-6.1l3.6,1.1l7.4-0.8l6.1-2.4l2.5-1.6l1.3-0.8l1-0.6l4.3-1l4.3,1.4l1.5,3.6L804.7,126.1z"/>
	</g>
</g>
</svg>
