<?xml version="1.0" encoding="utf-8"?>
<!-- Generator: Adobe Illustrator 22.1.0, SVG Export Plug-In . SVG Version: 6.00 Build 0)  -->
<svg version="1.1" id="Layer_1" xmlns="http://www.w3.org/2000/svg" xmlns:xlink="http://www.w3.org/1999/xlink" x="0px" y="0px"
	 viewBox="0 0 841.9 841.9" style="enable-background:new 0 0 841.9 841.9;" xml:space="preserve">
<style type="text/css">
	.st0{fill:#FFFFFF;}
</style>
<g>
	<path class="st0" d="M740,648.1L593.8,501.9l59.1-21.5c5-1.8,8-7,7.1-12.3l-15.8-89.8l45.6-79c2.7-4.6,1.6-10.5-2.5-14l-69.9-58.6
		l-15.8-89.8c-0.9-5.3-5.5-9.1-10.9-9.1h-91.2l-69.8-58.6c-4.1-3.4-10.1-3.4-14.2,0l-69.8,58.6h-91.2c-5.4,0-10,3.9-10.9,9.1
		l-15.8,89.8l-69.8,58.6c-4.1,3.4-5.1,9.4-2.5,14l45.6,79l-15.8,89.8c-0.9,5.3,2.1,10.5,7.1,12.3L249,501l-147.1,147
		c-3,3-4,7.6-2.6,11.6s5.2,6.9,9.5,7.2l90.7,7.6l7.6,90.7c0.4,4.3,3.2,8,7.2,9.5c1.2,0.5,2.5,0.7,3.8,0.7c2.9,0,5.7-1.1,7.8-3.2
		L420.9,577L616,772c2.1,2.1,4.9,3.2,7.8,3.2c1.3,0,2.6-0.2,3.8-0.7c4-1.5,6.9-5.2,7.2-9.5l7.6-90.7l90.7-7.6c4.3-0.4,8-3.2,9.5-7.2
		C744,655.6,743,651.1,740,648.1z M474.7,505.2c-17,5.5-35,8.4-53.8,8.4s-36.8-2.9-53.8-8.4c-28.9-9.3-54.6-25.9-74.9-47.6
		c-29.4-31.5-47.4-73.7-47.4-120.1c0-97.1,79-176.1,176.1-176.1S597,240.4,597,337.5c0,46.4-18,88.6-47.4,120.1
		C529.3,479.3,503.6,495.9,474.7,505.2z"/>
	<path class="st0" d="M548.7,302.3c-1.5-4.6-5.7-7.6-10.5-7.6h-81.6l-25.2-77.6c-1.5-4.6-5.7-7.6-10.5-7.6c-4.8,0-9,3.1-10.5,7.6
		l-25.2,77.6h-81.6c-4.8,0-9,3.1-10.5,7.6c-1.5,4.6,0.1,9.5,4,12.4l66,47.9L338,440.2c-1.5,4.6,0.1,9.5,4,12.4
		c1.9,1.4,4.2,2.1,6.5,2.1c2.3,0,4.6-0.7,6.5-2.1l66-47.9l66,47.9c3.9,2.8,9.1,2.8,13,0c3.9-2.8,5.5-7.8,4-12.4l-25.2-77.6l66-47.9
		C548.6,311.9,550.2,306.9,548.7,302.3z"/>
</g>
</svg>
