<svg id="Layer_1" data-name="Layer 1" xmlns="http://www.w3.org/2000/svg" viewBox="0 0 841.89 841.89"><defs><style>.cls-1{fill:#fff;}</style></defs><title>twitter</title><path class="cls-1" d="M775.28,201.22a303,303,0,0,1-83.72,22.94,144.48,144.48,0,0,0,63.92-80.3A290.44,290.44,0,0,1,663.35,179a145.54,145.54,0,0,0-106.12-46C476.8,133.05,412,198.34,412,278.37a149.66,149.66,0,0,0,3.37,33.13c-120.78-5.89-227.66-63.78-299.46-152A145.33,145.33,0,0,0,160.6,353.71,143.5,143.5,0,0,1,95,335.82v1.59c0,70.6,50.36,129.24,116.4,142.75A144.77,144.77,0,0,1,173.27,485a129.11,129.11,0,0,1-27.51-2.48C164.59,540,218,582.3,281.52,583.67a291.9,291.9,0,0,1-180.14,62,272.51,272.51,0,0,1-34.77-2c64.36,41.5,140.63,65.2,222.88,65.2,267.34,0,413.5-221.46,413.5-413.42,0-6.42-.22-12.62-.53-18.78C731.29,256.18,755.52,230.62,775.28,201.22Z"/></svg>