<svg id="Layer_1" data-name="Layer 1" xmlns="http://www.w3.org/2000/svg" viewBox="0 0 841.89 841.89"><defs><style>.cls-1{fill:#fff;}</style></defs><title>youtube</title><polygon class="cls-1" points="390.55 485.51 493.27 417.79 390.55 350.06 390.55 485.51"/><path class="cls-1" d="M421,66.61C225.25,66.61,66.61,225.25,66.61,421S225.25,775.28,421,775.28,775.28,616.64,775.28,421,616.64,66.61,421,66.61Zm185.41,286V496.78a53.76,53.76,0,0,1-53.75,53.78H300.44a53.76,53.76,0,0,1-53.75-53.78V352.57a53.77,53.77,0,0,1,53.75-53.78H552.62a53.76,53.76,0,0,1,53.75,53.78Z"/></svg>